<?xml version="1.0" encoding="UTF-8" standalone="no"?>
<svg
   width="512pt"
   height="512pt"
   viewBox="0 0 512 512"
   version="1.1"
   id="svg185"
   xmlns:xlink="http://www.w3.org/1999/xlink"
   xmlns="http://www.w3.org/2000/svg"
   xmlns:svg="http://www.w3.org/2000/svg">
  <defs
     id="defs179">
    <filter
       id="filter-remove-color"
       x="0.15277777"
       y="0.15277777"
       width="0.69444442"
       height="0.69444442">
      <feColorMatrix
         color-interpolation-filters="sRGB"
         values="0 0 0 0 1 0 0 0 0 1 0 0 0 0 1 0 0 0 1 0"
         id="feColorMatrix2" />
    </filter>
    <clipPath
       id="clip-0">
      <path
         clip-rule="nonzero"
         d="M 0 0 L 512 0 L 512 512 L 0 512 Z M 0 0 "
         id="path5" />
    </clipPath>
    <clipPath
       id="clip-1">
      <rect
         x="0"
         y="0"
         width="512"
         height="512"
         id="rect8" />
    </clipPath>
    <g
       id="source-10686"
       clip-path="url(#clip-1)">
      <g
         clip-path="url(#clip-0)"
         id="g13">
        <rect
           x="-112.64"
           y="-112.64"
           width="737.28"
           height="737.28"
           fill="rgb(0%, 0%, 0%)"
           fill-opacity="1"
           id="rect11" />
      </g>
    </g>
    <mask
       id="mask-0">
      <g
         filter="url(#filter-remove-color)"
         id="g18">
        <use
           xlink:href="#source-10686"
           id="use16" />
      </g>
    </mask>
    <clipPath
       id="clip-2">
      <path
         clip-rule="nonzero"
         d="M 46 235 L 419 235 L 419 512 L 46 512 Z M 46 235 "
         id="path21" />
    </clipPath>
    <clipPath
       id="clip-3">
      <path
         clip-rule="nonzero"
         d="M 43 232 L 425 232 L 425 512 L 43 512 Z M 43 232 "
         id="path24" />
    </clipPath>
    <clipPath
       id="clip-4">
      <path
         clip-rule="nonzero"
         d="M 47 45 L 449 45 L 449 512 L 47 512 Z M 47 45 "
         id="path27" />
    </clipPath>
    <clipPath
       id="clip-5">
      <path
         clip-rule="nonzero"
         d="M 44 42 L 450 42 L 450 512 L 44 512 Z M 44 42 "
         id="path30" />
    </clipPath>
    <clipPath
       id="clip-6">
      <path
         clip-rule="nonzero"
         d="M 101 324 L 248 324 L 248 512 L 101 512 Z M 101 324 "
         id="path33" />
    </clipPath>
    <clipPath
       id="clip-7">
      <path
         clip-rule="nonzero"
         d="M 98 321 L 251 321 L 251 512 L 98 512 Z M 98 321 "
         id="path36" />
    </clipPath>
    <clipPath
       id="clip-8">
      <path
         clip-rule="nonzero"
         d="M 379 341 L 506 341 L 506 512 L 379 512 Z M 379 341 "
         id="path39" />
    </clipPath>
    <clipPath
       id="clip-9">
      <path
         clip-rule="nonzero"
         d="M 376 338 L 509 338 L 509 512 L 376 512 Z M 376 338 "
         id="path42" />
    </clipPath>
    <clipPath
       id="clip-10">
      <path
         clip-rule="nonzero"
         d="M 43 265 L 125 265 L 125 512 L 43 512 Z M 43 265 "
         id="path45" />
    </clipPath>
    <clipPath
       id="clip-11">
      <path
         clip-rule="nonzero"
         d="M 45 42 L 453 42 L 453 512 L 45 512 Z M 45 42 "
         id="path48" />
    </clipPath>
    <clipPath
       id="clip-12">
      <path
         clip-rule="nonzero"
         d="M 99 321 L 252 321 L 252 512 L 99 512 Z M 99 321 "
         id="path51" />
    </clipPath>
    <clipPath
       id="clip-13">
      <path
         clip-rule="nonzero"
         d="M 377 337 L 510 337 L 510 512 L 377 512 Z M 377 337 "
         id="path54" />
    </clipPath>
    <clipPath
       id="clip-14">
      <path
         clip-rule="nonzero"
         d="M 12 384 L 80 384 L 80 512 L 12 512 Z M 12 384 "
         id="path57" />
    </clipPath>
    <clipPath
       id="clip-15">
      <path
         clip-rule="nonzero"
         d="M 20 392 L 72 392 L 72 512 L 20 512 Z M 20 392 "
         id="path60" />
    </clipPath>
    <clipPath
       id="clip-16">
      <path
         clip-rule="nonzero"
         d="M 79 291 L 148 291 L 148 512 L 79 512 Z M 79 291 "
         id="path63" />
    </clipPath>
    <clipPath
       id="clip-17">
      <path
         clip-rule="nonzero"
         d="M 87 299 L 140 299 L 140 512 L 87 512 Z M 87 299 "
         id="path66" />
    </clipPath>
    <clipPath
       id="clip-18">
      <path
         clip-rule="nonzero"
         d="M 147 344 L 217 344 L 217 512 L 147 512 Z M 147 344 "
         id="path69" />
    </clipPath>
    <clipPath
       id="clip-19">
      <path
         clip-rule="nonzero"
         d="M 155 352 L 209 352 L 209 512 L 155 512 Z M 155 352 "
         id="path72" />
    </clipPath>
    <clipPath
       id="clip-20">
      <path
         clip-rule="nonzero"
         d="M 216 397 L 286 397 L 286 512 L 216 512 Z M 216 397 "
         id="path75" />
    </clipPath>
    <clipPath
       id="clip-21">
      <path
         clip-rule="nonzero"
         d="M 224 405 L 278 405 L 278 512 L 224 512 Z M 224 405 "
         id="path78" />
    </clipPath>
    <clipPath
       id="clip-22">
      <rect
         x="0"
         y="0"
         width="512"
         height="512"
         id="rect81" />
    </clipPath>
    <g
       id="source-10685"
       clip-path="url(#clip-22)">
      <g
         clip-path="url(#clip-2)"
         id="g86">
        <path
           fill-rule="nonzero"
           fill="rgb(11.372375%, 60.783386%, 94.116211%)"
           fill-opacity="1"
           d="M 74.828125 414.375 C 92.96875 375.191406 109.898438 307.953125 120.539063 266.351563 L 235.382813 235.632813 L 418.960938 528.050781 L 46.527344 572.554688 C 45.804688 543.53125 41.824219 485.664063 74.828125 414.375 Z M 74.828125 414.375 "
           id="path84" />
      </g>
      <g
         clip-path="url(#clip-3)"
         id="g90">
        <path
           fill-rule="nonzero"
           fill="rgb(11.372375%, 60.783386%, 94.116211%)"
           fill-opacity="1"
           d="M 120.539063 266.351563 L 119.765625 263.453125 L 118.070313 263.90625 L 117.632813 265.609375 Z M 74.828125 414.375 L 72.105469 413.113281 Z M 46.527344 572.554688 L 43.53125 572.632813 L 43.613281 575.925781 L 46.882813 575.535156 Z M 418.960938 528.050781 L 419.316406 531.027344 L 424.019531 530.464844 L 421.5 526.453125 Z M 235.382813 235.632813 L 237.921875 234.035156 L 236.746094 232.160156 L 234.605469 232.734375 Z M 117.632813 265.609375 C 106.960938 307.335938 90.101563 374.242188 72.105469 413.113281 L 77.550781 415.636719 C 95.835938 376.140625 112.835938 308.570313 123.445313 267.09375 Z M 72.105469 413.113281 C 38.777344 485.097656 42.804688 543.601563 43.53125 572.632813 L 49.527344 572.480469 C 48.800781 543.464844 44.867188 486.230469 77.550781 415.636719 Z M 46.882813 575.535156 L 419.316406 531.027344 L 418.605469 525.070313 L 46.171875 569.578125 Z M 421.5 526.453125 L 237.921875 234.035156 L 232.839844 237.226563 L 416.417969 529.644531 Z M 234.605469 232.734375 L 119.765625 263.453125 L 121.316406 269.25 L 236.15625 238.53125 Z M 234.605469 232.734375 "
           id="path88" />
      </g>
      <g
         clip-path="url(#clip-4)"
         id="g94">
        <path
           fill-rule="nonzero"
           fill="rgb(11.372375%, 60.783386%, 94.116211%)"
           fill-opacity="1"
           d="M 364.34375 275.058594 C 370.148438 82.339844 268.5625 41.898438 217.046875 45.769531 C 161.414063 57.378906 49.722656 101.203125 47.980469 183.632813 C 46.238281 266.0625 159.964844 278.929688 217.046875 275.058594 C 260.164063 358.664063 355.105469 526.453125 389.9375 528.773438 C 424.765625 531.097656 442.90625 525.871094 448.511719 523.941406 C 418.039063 521.28125 358.539063 467.78125 364.34375 275.058594 Z M 364.34375 275.058594 "
           id="path92" />
      </g>
      <g
         clip-path="url(#clip-5)"
         id="g98">
        <path
           fill-rule="nonzero"
           fill="rgb(11.372375%, 60.783386%, 94.116211%)"
           fill-opacity="1"
           d="M 217.046875 45.769531 L 216.820313 42.777344 L 216.625 42.792969 L 216.433594 42.832031 Z M 364.34375 275.058594 L 367.339844 275.148438 Z M 448.511719 523.941406 L 449.488281 526.777344 L 448.773438 520.953125 Z M 47.980469 183.632813 L 50.980469 183.695313 Z M 217.046875 275.058594 L 219.710938 273.683594 L 218.808594 271.933594 L 216.84375 272.066406 Z M 217.269531 48.761719 C 242.1875 46.886719 279.542969 55.734375 309.984375 88.726563 C 340.40625 121.695313 364.230469 179.125 361.34375 274.96875 L 367.339844 275.148438 C 370.257813 178.273438 346.195313 119.125 314.394531 84.65625 C 282.617188 50.214844 243.417969 40.777344 216.820313 42.777344 Z M 361.34375 274.96875 C 358.433594 371.601563 371.878906 433.679688 390.113281 472.058594 C 408.308594 510.351563 431.523438 525.46875 448.253906 526.929688 L 448.773438 520.953125 C 435.027344 519.753906 413.257813 506.789063 395.53125 469.484375 C 377.851563 432.269531 364.449219 371.238281 367.339844 275.148438 Z M 216.433594 42.832031 C 188.355469 48.691406 146.15625 62.664063 110.675781 85.625 C 75.257813 108.542969 45.882813 140.875 44.980469 183.570313 L 50.980469 183.695313 C 51.820313 143.960938 79.160156 113.164063 113.933594 90.664063 C 148.644531 68.199219 190.105469 54.457031 217.660156 48.707031 Z M 44.980469 183.570313 C 44.527344 204.945313 51.589844 221.933594 63.390625 235.230469 C 75.136719 248.457031 91.460938 257.898438 109.417969 264.523438 C 145.296875 277.753906 188.457031 280.003906 217.25 278.050781 L 216.84375 272.066406 C 188.550781 273.984375 146.308594 271.734375 111.492188 258.894531 C 94.101563 252.480469 78.75 243.492188 67.878906 231.246094 C 57.0625 219.0625 50.558594 203.535156 50.980469 183.695313 Z M 214.378906 276.433594 C 235.964844 318.285156 270.523438 381.21875 304.066406 434.007813 C 320.832031 460.390625 337.394531 484.320313 351.988281 501.832031 C 359.28125 510.578125 366.148438 517.808594 372.363281 522.949219 C 378.46875 527.996094 384.386719 531.410156 389.738281 531.769531 L 390.136719 525.78125 C 386.777344 525.558594 382.113281 523.222656 376.1875 518.324219 C 370.375 513.515625 363.777344 506.601563 356.597656 497.988281 C 342.246094 480.773438 325.84375 457.09375 309.132813 430.789063 C 275.714844 378.203125 241.246094 315.4375 219.710938 273.683594 Z M 389.738281 531.769531 C 424.953125 534.117188 443.496094 528.84375 449.488281 526.777344 L 447.535156 521.105469 C 442.3125 522.902344 424.574219 528.078125 390.136719 525.78125 Z M 389.738281 531.769531 "
           id="path96" />
      </g>
      <g
         clip-path="url(#clip-6)"
         id="g102">
        <path
           fill-rule="nonzero"
           fill="rgb(100%, 100%, 100%)"
           fill-opacity="1"
           d="M 191.648438 324.488281 C 133.601563 320.425781 107.480469 457.757813 101.675781 526.933594 L 244.617188 539.992188 C 246.070313 431.152344 264.210938 329.566406 191.648438 324.488281 Z M 191.648438 324.488281 "
           id="path100" />
      </g>
      <g
         clip-path="url(#clip-7)"
         id="g106">
        <path
           fill-rule="nonzero"
           fill="rgb(11.372375%, 60.783386%, 94.116211%)"
           fill-opacity="1"
           d="M 101.675781 526.933594 L 98.683594 526.679688 L 98.4375 529.648438 L 101.402344 529.917969 Z M 191.648438 324.488281 L 191.441406 327.480469 Z M 244.617188 539.992188 L 244.34375 542.980469 L 247.574219 543.273438 L 247.617188 540.03125 Z M 104.664063 527.183594 C 107.554688 492.738281 115.503906 441.375 129.910156 399.214844 C 137.117188 378.117188 145.871094 359.542969 156.261719 346.550781 C 166.640625 333.570313 178.300781 326.5625 191.441406 327.480469 L 191.859375 321.496094 C 175.972656 320.382813 162.601563 329.015625 151.574219 342.804688 C 140.558594 356.582031 131.535156 375.902344 124.230469 397.277344 C 109.613281 440.0625 101.597656 491.953125 98.683594 526.679688 Z M 191.441406 327.480469 C 208.761719 328.695313 220.378906 335.589844 228.296875 346.734375 C 236.335938 358.054688 240.75 374.023438 242.90625 393.65625 C 245.058594 413.25 244.929688 436.128906 244.160156 461.023438 C 243.390625 485.835938 241.980469 512.714844 241.617188 539.953125 L 247.617188 540.03125 C 247.980469 512.847656 249.382813 486.214844 250.15625 461.210938 C 250.929688 436.289063 251.070313 413.046875 248.871094 393.003906 C 246.671875 373 242.109375 355.820313 233.1875 343.261719 C 224.144531 330.53125 210.820313 322.824219 191.859375 321.496094 Z M 101.402344 529.917969 L 244.34375 542.980469 L 244.890625 537.003906 L 101.949219 523.945313 Z M 101.402344 529.917969 "
           id="path104" />
      </g>
      <g
         clip-path="url(#clip-8)"
         id="g110">
        <path
           fill-rule="nonzero"
           fill="rgb(11.372375%, 60.783386%, 94.116211%)"
           fill-opacity="1"
           d="M 505.835938 341.089844 C 472.167969 389.847656 407.636719 419.453125 379.582031 428.160156 C 384.59375 455.089844 401.773438 509.914063 430.371094 513.78125 C 485.519531 471.988281 503.660156 381.480469 505.835938 341.089844 Z M 505.835938 341.089844 "
           id="path108" />
      </g>
      <g
         clip-path="url(#clip-9)"
         id="g114">
        <path
           fill-rule="nonzero"
           fill="rgb(11.372375%, 60.783386%, 94.116211%)"
           fill-opacity="1"
           d="M 379.582031 428.160156 L 378.691406 425.296875 C 377.238281 425.746094 376.351563 427.214844 376.632813 428.710938 Z M 505.835938 341.089844 L 508.832031 341.25 C 508.902344 339.910156 508.074219 338.683594 506.804688 338.25 C 505.535156 337.816406 504.128906 338.28125 503.367188 339.382813 Z M 430.371094 513.78125 L 429.972656 516.753906 C 430.757813 516.863281 431.554688 516.652344 432.183594 516.171875 Z M 380.46875 431.027344 C 394.734375 426.597656 418.109375 416.917969 442.167969 402.203125 C 466.214844 387.5 491.144531 367.644531 508.304688 342.792969 L 503.367188 339.382813 C 486.859375 363.292969 462.6875 382.621094 439.039063 397.085938 C 415.402344 411.542969 392.480469 421.015625 378.691406 425.296875 Z M 502.839844 340.925781 C 501.765625 360.863281 496.734375 393.300781 485.140625 425.90625 C 473.53125 458.550781 455.46875 491 428.5625 511.390625 L 432.183594 516.171875 C 460.421875 494.773438 479.003906 461.070313 490.792969 427.914063 C 502.601563 394.71875 507.730469 361.707031 508.832031 341.25 Z M 376.632813 428.710938 C 379.171875 442.355469 384.789063 463.066406 393.429688 480.925781 C 397.753906 489.855469 402.894531 498.203125 408.886719 504.609375 C 414.871094 511.007813 421.898438 515.664063 429.972656 516.753906 L 430.773438 510.808594 C 424.546875 509.96875 418.699219 506.320313 413.265625 500.511719 C 407.835938 494.707031 403.007813 486.941406 398.832031 478.3125 C 390.484375 461.0625 385.003906 440.894531 382.53125 427.613281 Z M 376.632813 428.710938 "
           id="path112" />
      </g>
      <path
         fill-rule="nonzero"
         fill="rgb(11.372375%, 60.783386%, 94.116211%)"
         fill-opacity="1"
         d="M 391.191406 383.898438 L 384.660156 424.535156 C 409.507813 421.230469 464.753906 402.960938 486.96875 356.328125 L 459.398438 334.558594 L 453.59375 386.800781 L 428.195313 369.386719 L 413.683594 412.921875 Z M 391.191406 383.898438 "
         id="path116" />
      <path
         fill-rule="nonzero"
         fill="rgb(11.372375%, 60.783386%, 94.116211%)"
         fill-opacity="1"
         d="M 384.660156 424.535156 L 381.699219 424.058594 C 381.546875 424.992188 381.847656 425.945313 382.511719 426.625 C 383.171875 427.304688 384.117188 427.632813 385.054688 427.507813 Z M 391.191406 383.898438 L 393.5625 382.0625 C 392.828125 381.117188 391.605469 380.695313 390.449219 380.992188 C 389.289063 381.289063 388.417969 382.242188 388.226563 383.421875 Z M 413.683594 412.921875 L 411.3125 414.761719 C 411.992188 415.636719 413.097656 416.066406 414.1875 415.882813 C 415.28125 415.695313 416.179688 414.921875 416.53125 413.871094 Z M 428.195313 369.386719 L 429.894531 366.914063 C 429.117188 366.378906 428.132813 366.242188 427.242188 366.542969 C 426.347656 366.84375 425.648438 367.546875 425.351563 368.4375 Z M 453.59375 386.800781 L 451.894531 389.277344 C 452.765625 389.871094 453.882813 389.96875 454.839844 389.53125 C 455.800781 389.089844 456.457031 388.179688 456.574219 387.132813 Z M 459.398438 334.558594 L 461.257813 332.203125 C 460.402344 331.527344 459.246094 331.371094 458.238281 331.789063 C 457.234375 332.210938 456.535156 333.144531 456.414063 334.226563 Z M 486.96875 356.328125 L 489.679688 357.617188 C 490.28125 356.351563 489.929688 354.839844 488.828125 353.972656 Z M 387.621094 425.007813 L 394.152344 384.375 L 388.226563 383.421875 L 381.699219 424.058594 Z M 388.820313 385.738281 L 411.3125 414.761719 L 416.054688 411.085938 L 393.5625 382.0625 Z M 416.53125 413.871094 L 431.042969 370.335938 L 425.351563 368.4375 L 410.839844 411.976563 Z M 426.5 371.863281 L 451.894531 389.277344 L 455.289063 384.328125 L 429.894531 366.914063 Z M 456.574219 387.132813 L 462.378906 334.890625 L 456.414063 334.226563 L 450.609375 386.46875 Z M 457.539063 336.914063 L 485.109375 358.679688 L 488.828125 353.972656 L 461.257813 332.203125 Z M 385.054688 427.507813 C 397.824219 425.808594 418.207031 420.308594 438.246094 409.308594 C 458.292969 398.304688 478.214844 381.679688 489.679688 357.617188 L 484.261719 355.035156 C 473.507813 377.609375 454.703125 393.433594 435.359375 404.050781 C 416.007813 414.667969 396.34375 419.953125 384.265625 421.558594 Z M 385.054688 427.507813 "
         id="path118" />
      <path
         fill-rule="nonzero"
         fill="rgb(11.372375%, 60.783386%, 94.116211%)"
         fill-opacity="1"
         d="M 123.746094 228.273438 C 123.421875 229.039063 123.78125 229.917969 124.542969 230.242188 C 125.304688 230.5625 126.1875 230.207031 126.507813 229.441406 Z M 139.1875 218.210938 L 139.714844 219.613281 Z M 146.632813 216.246094 L 146.675781 217.746094 Z M 154.890625 216.960938 L 154.414063 218.386719 Z M 163.632813 221.152344 L 162.839844 222.425781 Z M 175.300781 228.035156 L 175.914063 226.667969 Z M 188.886719 228.296875 L 189.433594 229.691406 Z M 199.703125 224.199219 L 199.117188 222.816406 Z M 204.300781 222.339844 L 204.769531 223.765625 Z M 207.941406 221.441406 L 207.382813 220.046875 Z M 216.640625 221.394531 L 216.148438 222.8125 Z M 223.707031 224.335938 L 223.085938 225.699219 Z M 227.109375 228.460938 C 227.796875 228.921875 228.730469 228.734375 229.1875 228.046875 C 229.648438 227.355469 229.460938 226.425781 228.773438 225.964844 Z M 126.507813 229.441406 C 128.71875 224.210938 134 221.773438 139.714844 219.613281 L 138.65625 216.808594 C 133.050781 218.921875 126.515625 221.71875 123.746094 228.273438 Z M 139.714844 219.613281 C 142.03125 218.742188 144.5625 217.804688 146.675781 217.746094 L 146.59375 214.746094 C 143.875 214.824219 140.835938 215.984375 138.65625 216.808594 Z M 146.675781 217.746094 C 149.777344 217.660156 151.753906 217.5 154.414063 218.386719 L 155.363281 215.539063 C 152.101563 214.453125 149.542969 214.664063 146.59375 214.746094 Z M 154.414063 218.386719 C 157.335938 219.359375 160.210938 220.792969 162.839844 222.425781 L 164.421875 219.875 C 161.636719 218.148438 158.550781 216.601563 155.363281 215.539063 Z M 162.839844 222.425781 C 166.59375 224.753906 170.402344 227.488281 174.6875 229.40625 L 175.914063 226.667969 C 171.871094 224.859375 168.40625 222.347656 164.421875 219.875 Z M 174.6875 229.40625 C 176.789063 230.347656 179.464844 230.796875 182.054688 230.839844 C 184.648438 230.882813 187.320313 230.515625 189.433594 229.691406 L 188.339844 226.898438 C 186.691406 227.539063 184.433594 227.878906 182.105469 227.839844 C 179.773438 227.804688 177.535156 227.390625 175.914063 226.667969 Z M 189.433594 229.691406 C 192.886719 228.34375 196.714844 227.089844 200.285156 225.578125 L 199.117188 222.816406 C 195.535156 224.332031 192.078125 225.441406 188.339844 226.898438 Z M 200.285156 225.578125 C 201.867188 224.910156 203.28125 224.253906 204.769531 223.765625 L 203.832031 220.914063 C 202.1875 221.457031 200.574219 222.199219 199.117188 222.816406 Z M 204.769531 223.765625 C 205.25 223.605469 205.757813 223.515625 206.414063 223.390625 C 207.027344 223.273438 207.769531 223.125 208.5 222.832031 L 207.382813 220.046875 C 206.953125 220.222656 206.46875 220.324219 205.851563 220.445313 C 205.273438 220.554688 204.542969 220.679688 203.832031 220.914063 Z M 208.5 222.832031 C 210.960938 221.847656 213.582031 221.929688 216.148438 222.8125 L 217.128906 219.976563 C 214.007813 218.902344 210.628906 218.75 207.382813 220.046875 Z M 216.148438 222.8125 C 218.546875 223.640625 220.707031 224.617188 223.085938 225.699219 L 224.328125 222.96875 C 221.964844 221.894531 219.679688 220.855469 217.128906 219.976563 Z M 223.085938 225.699219 C 223.667969 225.964844 224.28125 226.378906 224.972656 226.890625 C 225.617188 227.367188 226.390625 227.984375 227.109375 228.460938 L 228.773438 225.964844 C 228.136719 225.542969 227.53125 225.050781 226.761719 224.480469 C 226.039063 223.949219 225.214844 223.371094 224.328125 222.96875 Z M 223.085938 225.699219 "
         id="path120" />
      <g
         clip-path="url(#clip-10)"
         id="g124">
        <path
           fill-rule="nonzero"
           fill="rgb(11.372375%, 60.783386%, 94.116211%)"
           fill-opacity="1"
           d="M 75.75 414.128906 L 78.472656 415.390625 Z M 118.554688 265.363281 C 107.882813 307.089844 91.023438 374 73.027344 412.871094 L 78.472656 415.390625 C 96.757813 375.894531 113.757813 308.328125 124.371094 266.851563 Z M 73.027344 412.871094 C 39.703125 484.851563 43.726563 543.355469 44.453125 572.386719 L 50.449219 572.234375 C 49.726563 543.21875 45.789063 485.988281 78.472656 415.390625 Z M 73.027344 412.871094 "
           id="path122" />
      </g>
      <g
         clip-path="url(#clip-11)"
         id="g128">
        <path
           fill-rule="nonzero"
           fill="rgb(11.372375%, 60.783386%, 94.116211%)"
           fill-opacity="1"
           d="M 217.96875 45.523438 L 217.742188 42.53125 L 217.546875 42.546875 L 217.355469 42.585938 Z M 449.175781 526.683594 C 450.824219 526.828125 452.28125 525.605469 452.425781 523.957031 C 452.566406 522.304688 451.347656 520.851563 449.695313 520.707031 Z M 218.171875 277.808594 C 219.824219 277.695313 221.074219 276.265625 220.960938 274.609375 C 220.847656 272.957031 219.417969 271.707031 217.765625 271.820313 Z M 218.191406 48.515625 C 243.113281 46.644531 280.46875 55.492188 310.90625 88.480469 C 341.328125 121.449219 365.152344 178.878906 362.265625 274.722656 L 368.265625 274.902344 C 371.183594 178.027344 347.117188 118.878906 315.316406 84.414063 C 283.539063 49.972656 244.34375 40.535156 217.742188 42.53125 Z M 362.265625 274.722656 C 359.355469 371.355469 372.800781 433.433594 391.035156 471.816406 C 409.230469 510.109375 432.449219 525.222656 449.175781 526.683594 L 449.695313 520.707031 C 435.949219 519.507813 414.179688 506.542969 396.453125 469.238281 C 378.773438 432.023438 365.371094 370.992188 368.265625 274.902344 Z M 217.355469 42.585938 C 189.277344 48.445313 147.078125 62.417969 111.597656 85.378906 C 76.179688 108.300781 46.804688 140.628906 45.902344 183.324219 L 51.902344 183.453125 C 52.742188 143.71875 80.085938 112.921875 114.855469 90.417969 C 149.566406 67.957031 191.027344 54.210938 218.582031 48.460938 Z M 45.902344 183.324219 C 45.453125 204.699219 52.511719 221.691406 64.3125 234.984375 C 76.058594 248.210938 92.382813 257.65625 110.339844 264.277344 C 146.21875 277.511719 189.382813 279.757813 218.171875 277.808594 L 217.765625 271.820313 C 189.472656 273.738281 147.230469 271.488281 112.414063 258.648438 C 95.023438 252.234375 79.671875 243.246094 68.800781 231 C 57.984375 218.820313 51.484375 203.289063 51.902344 183.453125 Z M 45.902344 183.324219 "
           id="path126" />
      </g>
      <g
         clip-path="url(#clip-12)"
         id="g132">
        <path
           fill-rule="nonzero"
           fill="rgb(11.372375%, 60.783386%, 94.116211%)"
           fill-opacity="1"
           d="M 192.570313 324.242188 L 192.363281 327.234375 Z M 105.585938 526.9375 C 108.476563 492.492188 116.425781 441.128906 130.832031 398.972656 C 138.042969 377.871094 146.792969 359.296875 157.183594 346.308594 C 167.5625 333.324219 179.222656 326.316406 192.363281 327.234375 L 192.78125 321.25 C 176.894531 320.136719 163.523438 328.773438 152.496094 342.558594 C 141.480469 356.335938 132.457031 375.65625 125.152344 397.03125 C 110.535156 439.816406 102.523438 491.707031 99.609375 526.4375 Z M 192.363281 327.234375 C 209.683594 328.449219 221.300781 335.34375 229.21875 346.488281 C 237.257813 357.808594 241.671875 373.777344 243.828125 393.414063 C 245.980469 413.003906 245.851563 435.882813 245.082031 460.777344 C 244.3125 485.59375 242.902344 512.472656 242.542969 539.707031 L 248.539063 539.789063 C 248.902344 512.601563 250.304688 485.96875 251.078125 460.964844 C 251.851563 436.042969 251.996094 412.800781 249.792969 392.757813 C 247.597656 372.757813 243.03125 355.574219 234.109375 343.015625 C 225.066406 330.285156 211.742188 322.578125 192.78125 321.25 Z M 192.363281 327.234375 "
           id="path130" />
      </g>
      <g
         clip-path="url(#clip-13)"
         id="g136">
        <path
           fill-rule="nonzero"
           fill="rgb(11.372375%, 60.783386%, 94.116211%)"
           fill-opacity="1"
           d="M 379.613281 425.050781 C 378.03125 425.542969 377.148438 427.222656 377.636719 428.804688 C 378.128906 430.386719 379.808594 431.273438 381.390625 430.78125 Z M 506.757813 340.84375 L 509.753906 341.003906 C 509.824219 339.664063 509 338.4375 507.726563 338.003906 C 506.457031 337.570313 505.050781 338.035156 504.289063 339.140625 Z M 429.484375 511.144531 C 428.164063 512.148438 427.902344 514.027344 428.90625 515.347656 C 429.90625 516.667969 431.785156 516.929688 433.109375 515.929688 Z M 381.390625 430.78125 C 395.660156 426.355469 419.03125 416.671875 443.089844 401.960938 C 467.136719 387.253906 492.066406 367.398438 509.226563 342.546875 L 504.289063 339.140625 C 487.78125 363.046875 463.609375 382.378906 439.960938 396.839844 C 416.324219 411.296875 393.40625 420.769531 379.613281 425.050781 Z M 503.761719 340.683594 C 502.6875 360.617188 497.660156 393.054688 486.0625 425.660156 C 474.453125 458.304688 456.390625 490.753906 429.484375 511.144531 L 433.109375 515.929688 C 461.347656 494.527344 479.925781 460.824219 491.714844 427.667969 C 503.523438 394.472656 508.652344 361.460938 509.753906 341.003906 Z M 503.761719 340.683594 "
           id="path134" />
      </g>
      <path
         fill-rule="nonzero"
         fill="rgb(11.372375%, 60.783386%, 94.116211%)"
         fill-opacity="1"
         d="M 382.621094 423.8125 C 382.355469 425.449219 383.46875 426.988281 385.105469 427.25 C 386.742188 427.511719 388.28125 426.398438 388.542969 424.765625 Z M 392.113281 383.65625 L 394.484375 381.816406 C 393.75 380.871094 392.527344 380.453125 391.371094 380.746094 C 390.210938 381.042969 389.339844 382 389.152344 383.179688 Z M 414.605469 412.679688 L 412.234375 414.515625 C 412.914063 415.390625 414.019531 415.820313 415.109375 415.636719 C 416.203125 415.449219 417.101563 414.679688 417.453125 413.628906 Z M 429.117188 369.140625 L 430.816406 366.667969 C 430.039063 366.136719 429.054688 366 428.164063 366.296875 C 427.269531 366.597656 426.570313 367.300781 426.273438 368.195313 Z M 454.515625 386.558594 L 452.816406 389.03125 C 453.6875 389.628906 454.804688 389.722656 455.765625 389.285156 C 456.722656 388.84375 457.378906 387.9375 457.496094 386.886719 Z M 460.320313 334.3125 L 462.179688 331.957031 C 461.324219 331.285156 460.167969 331.125 459.164063 331.546875 C 458.15625 331.964844 457.457031 332.898438 457.335938 333.980469 Z M 486.035156 358.4375 C 487.332031 359.460938 489.21875 359.242188 490.246094 357.941406 C 491.273438 356.640625 491.050781 354.753906 489.75 353.726563 Z M 388.542969 424.765625 L 395.074219 384.128906 L 389.152344 383.179688 L 382.621094 423.8125 Z M 389.742188 385.492188 L 412.234375 414.515625 L 416.976563 410.839844 L 394.484375 381.816406 Z M 417.453125 413.628906 L 431.964844 370.089844 L 426.273438 368.195313 L 411.761719 411.730469 Z M 427.421875 371.617188 L 452.816406 389.03125 L 456.210938 384.082031 L 430.816406 366.667969 Z M 457.496094 386.886719 L 463.300781 334.644531 L 457.335938 333.980469 L 451.53125 386.226563 Z M 458.460938 336.667969 L 486.035156 358.4375 L 489.75 353.726563 L 462.179688 331.957031 Z M 458.460938 336.667969 "
         id="path138" />
      <path
         fill-rule="nonzero"
         fill="rgb(100%, 100%, 100%)"
         fill-opacity="1"
         d="M 267.554688 142.023438 C 269.554688 141.085938 270.417969 138.707031 269.480469 136.703125 C 268.542969 134.703125 266.164063 133.839844 264.160156 134.777344 Z M 231.753906 154.363281 L 230.058594 150.742188 C 228.703125 151.375 227.816406 152.710938 227.757813 154.207031 C 227.699219 155.699219 228.476563 157.101563 229.777344 157.839844 Z M 266.78125 178.882813 C 268.703125 179.976563 271.144531 179.304688 272.238281 177.382813 C 273.328125 175.464844 272.65625 173.019531 270.738281 171.929688 Z M 264.160156 134.777344 L 230.058594 150.742188 L 233.449219 157.988281 L 267.554688 142.023438 Z M 229.777344 157.839844 L 266.78125 178.882813 L 270.738281 171.929688 L 233.730469 150.886719 Z M 229.777344 157.839844 "
         id="path140" />
      <path
         fill-rule="nonzero"
         fill="rgb(100%, 100%, 100%)"
         fill-opacity="1"
         d="M 103.804688 142.023438 C 101.804688 141.085938 100.941406 138.707031 101.875 136.703125 C 102.8125 134.703125 105.195313 133.839844 107.195313 134.777344 Z M 139.601563 154.363281 L 141.296875 150.742188 C 142.652344 151.375 143.539063 152.710938 143.601563 154.207031 C 143.660156 155.699219 142.878906 157.101563 141.578125 157.839844 Z M 104.574219 178.882813 C 102.652344 179.976563 100.210938 179.304688 99.121094 177.382813 C 98.027344 175.464844 98.699219 173.019531 100.621094 171.929688 Z M 107.195313 134.777344 L 141.296875 150.742188 L 137.90625 157.988281 L 103.804688 142.023438 Z M 141.578125 157.839844 L 104.574219 178.882813 L 100.621094 171.929688 L 137.625 150.886719 Z M 141.578125 157.839844 "
         id="path142" />
      <path
         fill-rule="nonzero"
         fill="rgb(100%, 100%, 100%)"
         fill-opacity="1"
         d="M 122.363281 227.054688 C 121.503906 229.089844 122.457031 231.4375 124.492188 232.296875 C 126.527344 233.15625 128.875 232.207031 129.734375 230.171875 Z M 140.109375 217.964844 L 141.519531 221.707031 Z M 147.558594 216 L 147.667969 220 Z M 155.8125 216.71875 L 154.546875 220.511719 Z M 164.554688 220.90625 L 162.445313 224.304688 Z M 176.222656 227.789063 L 177.855469 224.140625 Z M 189.808594 228.050781 L 191.261719 231.777344 Z M 200.625 223.953125 L 199.066406 220.269531 Z M 205.222656 222.09375 L 206.476563 225.894531 Z M 208.863281 221.195313 L 207.378906 217.480469 Z M 217.5625 221.148438 L 216.257813 224.929688 Z M 224.628906 224.089844 L 222.972656 227.730469 Z M 226.644531 230.296875 C 228.484375 231.523438 230.964844 231.023438 232.191406 229.1875 C 233.417969 227.347656 232.921875 224.867188 231.082031 223.640625 Z M 129.734375 230.171875 C 131.480469 226.039063 135.710938 223.902344 141.519531 221.707031 L 138.695313 214.222656 C 133.183594 216.304688 125.601563 219.398438 122.363281 227.054688 Z M 141.519531 221.707031 C 143.945313 220.792969 146.058594 220.042969 147.667969 220 L 147.445313 212.003906 C 144.222656 212.09375 140.765625 213.441406 138.695313 214.222656 Z M 147.667969 220 C 150.894531 219.910156 152.386719 219.792969 154.546875 220.511719 L 157.078125 212.921875 C 153.3125 211.667969 150.273438 211.925781 147.445313 212.003906 Z M 154.546875 220.511719 C 157.246094 221.410156 159.941406 222.75 162.445313 224.304688 L 166.664063 217.507813 C 163.75 215.699219 160.488281 214.058594 157.078125 212.921875 Z M 162.445313 224.304688 C 166.003906 226.511719 170.097656 229.433594 174.589844 231.441406 L 177.855469 224.140625 C 174.023438 222.425781 170.839844 220.097656 166.664063 217.507813 Z M 174.589844 231.441406 C 177.09375 232.5625 180.128906 233.050781 182.9375 233.09375 C 185.753906 233.140625 188.765625 232.75 191.261719 231.777344 L 188.355469 224.324219 C 187.09375 224.816406 185.175781 225.128906 183.066406 225.097656 C 180.957031 225.0625 179.074219 224.683594 177.855469 224.140625 Z M 191.261719 231.777344 C 194.488281 230.519531 198.621094 229.140625 202.179688 227.636719 L 199.066406 220.269531 C 195.472656 221.789063 192.324219 222.773438 188.355469 224.324219 Z M 202.179688 227.636719 C 203.867188 226.925781 205.113281 226.34375 206.476563 225.894531 L 203.972656 218.292969 C 202.199219 218.878906 200.417969 219.695313 199.066406 220.269531 Z M 206.476563 225.894531 C 206.765625 225.796875 207.082031 225.738281 207.804688 225.601563 C 208.414063 225.484375 209.371094 225.300781 210.351563 224.910156 L 207.378906 217.480469 C 207.195313 217.554688 206.925781 217.625 206.304688 217.742188 C 205.796875 217.839844 204.875 218 203.972656 218.292969 Z M 210.351563 224.910156 C 212.160156 224.1875 214.152344 224.207031 216.257813 224.929688 L 218.867188 217.367188 C 215.285156 216.132813 211.277344 215.921875 207.378906 217.480469 Z M 216.257813 224.929688 C 218.527344 225.714844 220.582031 226.644531 222.972656 227.730469 L 226.285156 220.449219 C 223.933594 219.378906 221.546875 218.292969 218.867188 217.367188 Z M 222.972656 227.730469 C 223.300781 227.878906 223.738281 228.15625 224.40625 228.652344 C 224.941406 229.050781 225.863281 229.773438 226.644531 230.296875 L 231.082031 223.640625 C 230.511719 223.261719 230.046875 222.878906 229.171875 222.226563 C 228.429688 221.675781 227.425781 220.96875 226.285156 220.449219 Z M 222.972656 227.730469 "
         id="path144" />
      <g
         clip-path="url(#clip-14)"
         id="g148">
        <path
           fill-rule="nonzero"
           fill="rgb(100%, 100%, 100%)"
           fill-opacity="1"
           d="M 28 400.242188 L 63.902344 400.242188 L 63.902344 384.242188 L 28 384.242188 Z M 63.902344 400.242188 L 63.902344 510.003906 L 79.902344 510.003906 L 79.902344 400.242188 Z M 63.902344 510.003906 L 28 510.003906 L 28 526.003906 L 63.902344 526.003906 Z M 28 510.003906 L 28 400.242188 L 12 400.242188 L 12 510.003906 Z M 28 510.003906 L 12 510.003906 C 12 518.839844 19.164063 526.003906 28 526.003906 Z M 63.902344 510.003906 L 63.902344 526.003906 C 72.738281 526.003906 79.902344 518.839844 79.902344 510.003906 Z M 63.902344 400.242188 L 79.902344 400.242188 C 79.902344 391.40625 72.738281 384.242188 63.902344 384.242188 Z M 28 384.242188 C 19.164063 384.242188 12 391.40625 12 400.242188 L 28 400.242188 Z M 28 384.242188 "
           id="path146" />
      </g>
      <g
         clip-path="url(#clip-15)"
         id="g152">
        <path
           fill-rule="nonzero"
           fill="rgb(19.999695%, 19.999695%, 19.999695%)"
           fill-opacity="1"
           d="M 20 400.242188 C 20 395.824219 23.582031 392.242188 28 392.242188 L 63.902344 392.242188 C 68.320313 392.242188 71.902344 395.824219 71.902344 400.242188 L 71.902344 510.003906 C 71.902344 514.421875 68.320313 518.003906 63.902344 518.003906 L 28 518.003906 C 23.582031 518.003906 20 514.421875 20 510.003906 Z M 20 400.242188 "
           id="path150" />
      </g>
      <g
         clip-path="url(#clip-16)"
         id="g156">
        <path
           fill-rule="nonzero"
           fill="rgb(100%, 100%, 100%)"
           fill-opacity="1"
           d="M 95.738281 307.085938 L 131.640625 307.085938 L 131.640625 291.085938 L 95.738281 291.085938 Z M 131.640625 307.085938 L 131.640625 509.671875 L 147.640625 509.671875 L 147.640625 307.085938 Z M 131.640625 509.671875 L 95.738281 509.671875 L 95.738281 525.671875 L 131.640625 525.671875 Z M 95.738281 509.671875 L 95.738281 307.085938 L 79.738281 307.085938 L 79.738281 509.671875 Z M 95.738281 509.671875 L 79.738281 509.671875 C 79.738281 518.507813 86.902344 525.671875 95.738281 525.671875 Z M 131.640625 509.671875 L 131.640625 525.671875 C 140.476563 525.671875 147.640625 518.507813 147.640625 509.671875 Z M 131.640625 307.085938 L 147.640625 307.085938 C 147.640625 298.25 140.476563 291.085938 131.640625 291.085938 Z M 95.738281 291.085938 C 86.902344 291.085938 79.738281 298.25 79.738281 307.085938 L 95.738281 307.085938 Z M 95.738281 291.085938 "
           id="path154" />
      </g>
      <g
         clip-path="url(#clip-17)"
         id="g160">
        <path
           fill-rule="nonzero"
           fill="rgb(19.999695%, 19.999695%, 19.999695%)"
           fill-opacity="1"
           d="M 87.738281 307.085938 C 87.738281 302.667969 91.320313 299.085938 95.738281 299.085938 L 131.640625 299.085938 C 136.058594 299.085938 139.640625 302.667969 139.640625 307.085938 L 139.640625 509.671875 C 139.640625 514.089844 136.058594 517.671875 131.640625 517.671875 L 95.738281 517.671875 C 91.320313 517.671875 87.738281 514.089844 87.738281 509.671875 Z M 87.738281 307.085938 "
           id="path158" />
      </g>
      <g
         clip-path="url(#clip-18)"
         id="g164">
        <path
           fill-rule="nonzero"
           fill="rgb(100%, 100%, 100%)"
           fill-opacity="1"
           d="M 163.476563 360.1875 L 200.820313 360.1875 L 200.820313 344.1875 L 163.476563 344.1875 Z M 200.820313 360.1875 L 200.820313 509.871094 L 216.820313 509.871094 L 216.820313 360.1875 Z M 200.820313 509.871094 L 163.476563 509.871094 L 163.476563 525.871094 L 200.820313 525.871094 Z M 163.476563 509.871094 L 163.476563 360.1875 L 147.476563 360.1875 L 147.476563 509.871094 Z M 163.476563 509.871094 L 147.476563 509.871094 C 147.476563 518.707031 154.640625 525.871094 163.476563 525.871094 Z M 200.820313 509.871094 L 200.820313 525.871094 C 209.65625 525.871094 216.820313 518.707031 216.820313 509.871094 Z M 200.820313 360.1875 L 216.820313 360.1875 C 216.820313 351.347656 209.65625 344.1875 200.820313 344.1875 Z M 163.476563 344.1875 C 154.640625 344.1875 147.476563 351.347656 147.476563 360.1875 L 163.476563 360.1875 Z M 163.476563 344.1875 "
           id="path162" />
      </g>
      <g
         clip-path="url(#clip-19)"
         id="g168">
        <path
           fill-rule="nonzero"
           fill="rgb(19.999695%, 19.999695%, 19.999695%)"
           fill-opacity="1"
           d="M 155.476563 360.1875 C 155.476563 355.765625 159.058594 352.1875 163.476563 352.1875 L 200.820313 352.1875 C 205.238281 352.1875 208.820313 355.765625 208.820313 360.1875 L 208.820313 509.871094 C 208.820313 514.289063 205.238281 517.871094 200.820313 517.871094 L 163.476563 517.871094 C 159.058594 517.871094 155.476563 514.289063 155.476563 509.871094 Z M 155.476563 360.1875 "
           id="path166" />
      </g>
      <g
         clip-path="url(#clip-20)"
         id="g172">
        <path
           fill-rule="nonzero"
           fill="rgb(100%, 100%, 100%)"
           fill-opacity="1"
           d="M 232.65625 413.285156 L 270 413.285156 L 270 397.285156 L 232.65625 397.285156 Z M 270 413.285156 L 270 510.070313 L 286 510.070313 L 286 413.285156 Z M 270 510.070313 L 232.65625 510.070313 L 232.65625 526.070313 L 270 526.070313 Z M 232.65625 510.070313 L 232.65625 413.285156 L 216.65625 413.285156 L 216.65625 510.070313 Z M 232.65625 510.070313 L 216.65625 510.070313 C 216.65625 518.90625 223.820313 526.070313 232.65625 526.070313 Z M 270 510.070313 L 270 526.070313 C 278.835938 526.070313 286 518.90625 286 510.070313 Z M 270 413.285156 L 286 413.285156 C 286 404.449219 278.835938 397.285156 270 397.285156 Z M 232.65625 397.285156 C 223.820313 397.285156 216.65625 404.449219 216.65625 413.285156 L 232.65625 413.285156 Z M 232.65625 397.285156 "
           id="path170" />
      </g>
      <g
         clip-path="url(#clip-21)"
         id="g176">
        <path
           fill-rule="nonzero"
           fill="rgb(19.999695%, 19.999695%, 19.999695%)"
           fill-opacity="1"
           d="M 224.65625 413.285156 C 224.65625 408.867188 228.238281 405.285156 232.65625 405.285156 L 270 405.285156 C 274.417969 405.285156 278 408.867188 278 413.285156 L 278 510.070313 C 278 514.488281 274.417969 518.070313 270 518.070313 L 232.65625 518.070313 C 228.238281 518.070313 224.65625 514.488281 224.65625 510.070313 Z M 224.65625 413.285156 "
           id="path174" />
      </g>
    </g>
  </defs>
  <g
     mask="url(#mask-0)"
     id="g183">
    <use
       xlink:href="#source-10685"
       id="use181" />
  </g>
</svg>
